<svg id="Layer_1" data-name="Layer 1" xmlns="http://www.w3.org/2000/svg" viewBox="0 0 1920 222.85"><path d="M124.68,87.43H44.26v45.36c0,16.87,4.16,22.79,13.81,23,7,.22,7.67.65,7.67,2.41,0,2-1.32,2.41-4.17,2.41-7.23,0-18.84-.66-28.7-.66s-21.48.66-28.71.66c-2.85,0-4.16-.44-4.16-2.41,0-1.76.66-2.19,7.67-2.41,9.64-.22,13.8-6.14,13.8-23V40.32c0-16.87-4.16-22.79-13.8-23C.66,17.09,0,16.65,0,14.9c0-2,1.31-2.41,4.16-2.41,7.23,0,18.85.66,28.71.66s21.47-.66,28.7-.66c2.85,0,4.17.44,4.17,2.41,0,1.75-.66,2.19-7.67,2.41-9.65.22-13.81,6.14-13.81,23v40.1h80.42V40.32c0-16.87-4.16-22.79-13.8-23-7-.22-7.67-.66-7.67-2.41,0-2,1.31-2.41,4.16-2.41,7.23,0,18.85.66,28.7.66s21.48-.66,28.71-.66c2.85,0,4.16.44,4.16,2.41,0,1.75-.65,2.19-7.67,2.41-9.64.22-13.8,6.14-13.8,23v92.47c0,16.87,4.16,22.79,13.8,23,7,.22,7.67.65,7.67,2.41,0,2-1.31,2.41-4.16,2.41-7.23,0-18.84-.66-28.71-.66s-21.47.66-28.7.66c-2.85,0-4.16-.44-4.16-2.41,0-1.76.65-2.19,7.67-2.41,9.64-.22,13.8-6.14,13.8-23Z"/><path d="M260.33,9.2c47.55,0,81.52,32,81.52,77.35s-34,77.35-81.52,77.35-81.51-32-81.51-77.35S212.78,9.2,260.33,9.2Zm0,149.88c37.26,0,54.35-37.25,54.35-72.53S297.59,14,260.33,14,206,51.28,206,86.55,223.08,159.08,260.33,159.08Z"/><path d="M488.52,106.28c0,34-13.58,57.62-60.69,57.62-34,0-56.76-14.68-56.76-47.55V40.54c0-17.09-4.16-23-14-23.23-7-.22-7.67-.66-7.67-2.41,0-2,1.32-2.41,4.16-2.41,7.23,0,18.85.66,28.71.66s21.47-.66,28.7-.66c2.85,0,4.17.44,4.17,2.41,0,1.75-.66,2.19-7.67,2.41-9.64.22-14.46,6.14-14.46,23.23V115c0,32.21,20.38,40.76,42.95,40.76,43.6,0,46.67-31.56,46.67-56.76V41c0-10.52,0-22.79-13.59-23.23-6.57-.22-9-.66-9-2.63s1.31-2.63,3.72-2.63c5.48,0,11.4.66,22.13.66s15.78-.66,21.26-.66c2,0,3.29.66,3.29,2.63s-1.1,2.41-7.67,2.63c-13.37.44-14.25,12.71-14.25,23.23Z"/><path d="M518.93,119.2c0-2.63,1.1-3.72,3.07-3.72,2.19,0,2.85,1.53,3.29,4.16,1.53,9.42,11.61,38.79,41.63,38.79,22.57,0,33.53-14.25,33.53-29.37,0-43.38-77.35-28-77.35-80.41,0-28,24.54-39.45,44.7-39.45,22.79,0,25.85,9.86,33.74,9.86,3.51,0,2.85-8.1,5.48-8.1,1.75,0,2.63.87,2.63,3.72,0,4.82.66,27.17.66,31.56,0,3.06-.88,4.38-2.41,4.38s-3.07-3.29-4.38-7.89c-5.26-18.19-20.17-28-35.07-28-15.55,0-27.39,10.08-27.39,23.67,0,39,80.42,26.95,80.42,81.73,0,28.92-24.54,43.82-54.56,43.82C543,163.9,533.61,151,528.14,151c-3.51,0-2.85,7.23-6.36,7.23-2,0-2.85-2-2.85-4.17Z"/><path d="M652.77,40.32c0-16.87-4.16-22.79-13.8-23-7-.22-7.67-.66-7.67-2.41,0-2,1.31-2.41,4.16-2.41,17.31,0,34.84.66,52.15.66s34.84-.66,51.5-.66c1.75,0,3.5.44,3.5,2.63V39.88c0,3.29-.87,4.16-2.41,4.16s-2.85-.87-3.07-3.06c-1.75-18.19-9.2-23-34.62-23-24.76,0-27,.22-27,3.72V81.08c15.34,0,34.18-4,35.5-22.14.44-6.13,1.09-7.23,3.28-7.23,2,0,2.85.88,2.85,2.63,0,9.21-.65,18.19-.65,27.39s.65,18.19.65,27.39c0,1.76-.87,2.63-2.41,2.63s-2.41-.87-3.72-7.45c-2.85-14-13.81-17.75-28-17.75h-7.45v40.32c0,19.5,3.07,28.27,33.09,28.27,28.26,0,37.69-9.86,40.32-23.89.87-4.6,1.75-5.91,3.72-5.91,1.1,0,2,.88,2,2.63,0,4.38-1.31,16.21-1.31,22.35v7.45c0,2-1.1,2.85-3.51,2.85-19.06,0-38.13-.66-57.19-.66s-38.13.66-57.19.66c-2.85,0-4.16-.44-4.16-2.41,0-1.76.65-2.19,7.67-2.41,9.64-.22,13.8-6.14,13.8-23Z"/><path d="M912.86,92.47c0,31.55-21.69,70.56-54.13,70.56-16.21,0-26.07-12.71-26.07-29.58,0-33.31,23.44-72.75,55.44-72.75C902.78,60.7,912.86,73.84,912.86,92.47Zm-63.33,53.9c0,9,3.51,13.59,9.2,13.59,17.31,0,37.91-53.68,37.91-82.17,0-9-2.63-13.59-8.1-13.59C870.79,64.2,849.53,117.89,849.53,146.37Z"/><path d="M950.89,63.55l1.32-5C965.57,9.64,987.71,0,1006.55,0c16.87,0,25.64,7.89,25.64,16a9.08,9.08,0,0,1-9,9.2c-15.55,0-3.5-21.91-19.28-21.91-12.27,0-22.79,11.17-34.4,54.12L968,63.11c9-.22,17.09-.44,21.47-.44,2,0,2.19,4.38,0,4.38H967.11l-26.52,97.07c-13.14,48.65-32.21,58.73-50.83,58.73-15.78,0-21.48-7.45-21.48-15.34,0-5.26,3.51-10.3,9.43-10.3,6.35,0,9,5,7.23,10.52-2,5.7-.66,12.05,7.67,12.05,11.83,0,19.06-11.17,30.67-54.56L950,67.05H929.64c-1.54,0-1.32-2.85,0-2.85C933.58,64,941.69,63.76,950.89,63.55Z"/><path d="M1114.3,40.32c0-16.87-4.16-22.79-13.81-23-7-.22-7.67-.66-7.67-2.41,0-2,1.32-2.41,4.17-2.41,7.23,0,18.84.66,28.7.66s21.48-.66,28.71-.66c2.85,0,4.16.44,4.16,2.41,0,1.75-.65,2.19-7.67,2.41-9.64.22-13.8,6.14-13.8,23V96.63c24.1-25.85,41.63-47.11,45.36-52.15,5.48-7.67,9.64-14.46,9.64-18.84,0-4.82-2.63-8.11-8.77-8.33-7.23-.22-8.11-.88-8.11-2.85s1.76-2,3.07-2c7.89,0,15.56.66,23.45.66,6.79,0,13.58-.66,20.38-.66a2.37,2.37,0,0,1,2.63,2.41c0,2-1.54,2.41-6.36,2.85-7.67.66-12.71,6.57-17.31,12.93L1166,75.16c20.16,23.44,38.57,49.3,60.48,70.78,4.38,4.38,9.64,9.86,14,9.86,4.82.22,5.48.65,5.48,2.41,0,2-1.31,2.41-4.16,2.41-9.64,0-19.06-.66-30.68-.66-9.64,0-19.06.66-28.7.66-2.85,0-4.17-.44-4.17-2.41,0-1.76.66-2.19,7.67-2.41,4.38-.22,10.08-1.32,10.08-6.58,0-4.82-6.13-11.61-8.33-14.24l-36.37-44.26L1137.09,105v27.83c0,16.87,4.16,22.79,13.8,23,7,.22,7.67.65,7.67,2.41,0,2-1.31,2.41-4.16,2.41-7.23,0-18.85-.66-28.71-.66s-21.47.66-28.7.66c-2.85,0-4.17-.44-4.17-2.41,0-1.76.66-2.19,7.67-2.41,9.65-.22,13.81-6.14,13.81-23Z"/><path d="M1334,9.2h7.89l48.42,124.9c5.26,13.37,9.86,21.26,19.28,21.7,6.36.44,7,.87,7,2,0,2.63-.66,2.85-4.82,2.85-9,0-17.75-.66-26.74-.66s-17.75.66-26.73.66c-4.38,0-5.7-.22-5.7-2.85,0-1.1,1.32-2,7.45-2,7.23,0,10.08-4.17,10.08-8.77,0-4.38-3.5-15.34-6.79-24.1L1357,106.28h-55.66l-12.27,33.3a20.6,20.6,0,0,0-1.1,6.57c0,7,5.7,8.77,12.49,9.65,5,.65,5.7.87,5.7,2,0,2.63-.66,2.85-4.38,2.85-6.8,0-13.81-.66-20.6-.66s-13.81.66-20.6.66c-3.07,0-3.94-.66-3.94-2.85,0-.88.43-1.53,4.6-2,9.64-1.1,16.43-5.26,27-31.56Zm-4,27c-.22-.22-.22,0-.43,0l-25.86,64h50.83Z"/><path d="M1470.65,22.79c0-3.29-1.31-4.16-33.74-4.16-15.34,0-27.17,2.62-28.27,19.06-.44,7-1.53,7.67-3.29,7.67-1.31,0-1.75-.88-1.75-2.85V15.78c0-2,.66-3.29,3.72-3.29h149.45c3.06,0,3.72,1.31,3.72,3.29V42.51c0,2-.43,2.85-1.75,2.85-1.75,0-2.85-.66-3.29-7.67-1.09-16.44-12.92-19.06-28.26-19.06-32.43,0-33.75.87-33.75,4.16v110c0,16.87,4.16,22.79,13.81,23,7,.22,7.66.65,7.66,2.41,0,2-1.31,2.41-4.16,2.41-7.23,0-18.84-.66-28.7-.66s-21.48.66-28.71.66c-2.85,0-4.16-.44-4.16-2.41,0-1.76.66-2.19,7.67-2.41,9.64-.22,13.8-6.14,13.8-23Z"/><path d="M1700.82,87.43H1620.4v45.36c0,16.87,4.16,22.79,13.8,23,7,.22,7.67.65,7.67,2.41,0,2-1.31,2.41-4.16,2.41-7.23,0-18.84-.66-28.71-.66s-21.47.66-28.7.66c-2.85,0-4.16-.44-4.16-2.41,0-1.76.65-2.19,7.66-2.41,9.65-.22,13.81-6.14,13.81-23V40.32c0-16.87-4.16-22.79-13.81-23-7-.22-7.66-.66-7.66-2.41,0-2,1.31-2.41,4.16-2.41,7.23,0,18.84.66,28.7.66s21.48-.66,28.71-.66c2.85,0,4.16.44,4.16,2.41,0,1.75-.66,2.19-7.67,2.41-9.64.22-13.8,6.14-13.8,23v40.1h80.42V40.32c0-16.87-4.17-22.79-13.81-23-7-.22-7.67-.66-7.67-2.41,0-2,1.32-2.41,4.17-2.41,7.23,0,18.84.66,28.7.66s21.47-.66,28.71-.66c2.85,0,4.16.44,4.16,2.41,0,1.75-.66,2.19-7.67,2.41-9.64.22-13.8,6.14-13.8,23v92.47c0,16.87,4.16,22.79,13.8,23,7,.22,7.67.65,7.67,2.41,0,2-1.31,2.41-4.16,2.41-7.24,0-18.85-.66-28.71-.66s-21.47.66-28.7.66c-2.85,0-4.17-.44-4.17-2.41,0-1.76.66-2.19,7.67-2.41,9.64-.22,13.81-6.14,13.81-23Z"/><path d="M1837.39,9.2h7.89l48.43,124.9c5.25,13.37,9.85,21.26,19.28,21.7,6.35.44,7,.87,7,2,0,2.63-.66,2.85-4.82,2.85-9,0-17.75-.66-26.73-.66s-17.75.66-26.74.66c-4.38,0-5.7-.22-5.7-2.85,0-1.1,1.32-2,7.45-2,7.24,0,10.09-4.17,10.09-8.77,0-4.38-3.51-15.34-6.8-24.1l-6.35-16.65h-55.66l-12.27,33.3a20.6,20.6,0,0,0-1.1,6.57c0,7,5.7,8.77,12.49,9.65,5,.65,5.7.87,5.7,2,0,2.63-.66,2.85-4.38,2.85-6.79,0-13.81-.66-20.6-.66s-13.8.66-20.6.66c-3.06,0-3.94-.66-3.94-2.85,0-.88.44-1.53,4.6-2,9.64-1.1,16.43-5.26,26.95-31.56Zm-3.94,27c-.22-.22-.22,0-.44,0l-25.86,64H1858Z"/></svg>