<svg width="20" height="20" viewBox="0 0 20 20" fill="none" xmlns="http://www.w3.org/2000/svg">
<path d="M15.9975 14.0019L20 10L17.9972 8.00063L15.9975 6.00125L13.9978 8.00063C13.0259 8.97335 11.7313 9.55648 10.3586 9.63986C10.442 8.26742 11.0253 6.97304 11.9981 6.00125L13.9978 4.00187L9.99844 0L8.00186 1.99938L5.99907 3.99876L8.00186 5.99814C8.97473 6.96993 9.55796 8.26431 9.64136 9.63675C8.2674 9.55497 6.97129 8.97166 5.99907 7.99752L3.99938 5.99814L1.99969 7.99752L0 9.9969L1.99969 11.9994L3.99938 13.9988L5.99907 11.9994C6.97129 11.0253 8.2674 10.4419 9.64136 10.3601C9.55814 11.7335 8.97494 13.029 8.00186 14.0019L5.99907 16.0012L8.00186 18.0006L10.0016 20L12.0012 18.0006L14.0009 16.0012L12.0012 14.0019C11.0289 13.0297 10.4457 11.7356 10.3617 10.3632C11.7344 10.4466 13.029 11.0298 14.0009 12.0025L15.9975 14.0019Z" fill="#262525"/>
</svg>
